<?xml version="1.0" encoding="UTF-8" standalone="no"?>
<!DOCTYPE svg PUBLIC "-//W3C//DTD SVG 1.1//EN" "http://www.w3.org/Graphics/SVG/1.1/DTD/svg11.dtd">
<svg xmlns="http://www.w3.org/2000/svg" xmlns:xlink="http://www.w3.org/1999/xlink" xmlns:serif="http://www.serif.com/" width="100%" height="100%" viewBox="0 0 50 50" version="1.1" xml:space="preserve" style="fill-rule:evenodd;clip-rule:evenodd;stroke-linecap:round;stroke-linejoin:round;stroke-miterlimit:1.5;">
    <g id="Artboard1" transform="matrix(0.416667,0,0,0.458716,-259.167,-185.78)">
        <rect x="622" y="405" width="120" height="109" style="fill:none;"/>
        <clipPath id="_clip1">
            <rect x="622" y="405" width="120" height="109"/>
        </clipPath>
        <g clip-path="url(#_clip1)">
            <g transform="matrix(1.44578,0,0,1.31325,-1313.9,-23.1205)">
                <path d="M1380.5,326C1403.4,326 1422,344.596 1422,367.5C1422,390.404 1403.4,409 1380.5,409C1357.6,409 1339,390.404 1339,367.5C1339,344.596 1357.6,326 1380.5,326ZM1380.5,328C1358.7,328 1341,345.699 1341,367.5C1341,389.301 1358.7,407 1380.5,407C1402.3,407 1420,389.301 1420,367.5C1420,345.699 1402.3,328 1380.5,328Z" style="fill:rgb(8,6,5);"/>
            </g>
            <g transform="matrix(1.44578,0,0,1.31325,-1313.9,-23.1205)">
                <circle cx="1380.5" cy="367.5" r="39.5" style="fill:rgb(255, 217, 0);"/>
            </g>
            <g transform="translate(136.4, 88) scale(.8)">
                <g transform="matrix(2.4,0,0,2.18,622,405)">
                    <path d="M5,22L15,13.5L35,13.5L45,22L25,45L5,22Z" style="fill:#fff;"/>
                    <path d="M4.093,20.933L14.093,12.433C14.346,12.218 14.668,12.1 15,12.1L35,12.1C35.332,12.1 35.654,12.218 35.907,12.433L45.907,20.933C46.192,21.176 46.368,21.522 46.396,21.895C46.424,22.268 46.302,22.636 46.056,22.919L26.056,45.919C25.791,46.224 25.405,46.4 25,46.4C24.595,46.4 24.209,46.224 23.944,45.919L3.944,22.919C3.698,22.636 3.576,22.268 3.604,21.895C3.632,21.522 3.808,21.176 4.093,20.933ZM5,22L25,45L45,22L35,13.5L15,13.5L5,22Z" style="fill:rgb(8,6,5);"/>
                </g>
                <g transform="matrix(2.4,0,0,2.18,622,405)">
                    <path d="M20,12.9L30,12.9C30.223,12.9 30.427,13.023 30.531,13.221L35.531,22.721C35.617,22.885 35.623,23.079 35.546,23.248L25.546,45.248C25.449,45.462 25.235,45.6 25,45.6C24.765,45.6 24.551,45.462 24.454,45.248L14.454,23.248C14.377,23.079 14.383,22.885 14.469,22.721L19.469,13.221C19.573,13.023 19.777,12.9 20,12.9ZM20,13.5L15,23L25,45L35,23L30,13.5L20,13.5Z" style="fill:rgb(8,6,5);"/>
                </g>
                <g transform="matrix(2.4,0,0,2.18,622,405)">
                    <path d="M5,22L15,23L25,23.5L35,23L45,22" style="fill:none;stroke:rgb(8,6,5);stroke-width:0.6px;"/>
                </g>
                <g transform="matrix(2.4,0,0,2.18,622,405)">
                    <path d="M25,13.5L25,45" style="fill:none;stroke:rgb(8,6,5);stroke-width:0.6px;"/>
                </g>
            </g>
        </g>
    </g>
</svg>
