<?xml version="1.0" encoding="UTF-8" standalone="no"?>
<!DOCTYPE svg PUBLIC "-//W3C//DTD SVG 1.1//EN" "http://www.w3.org/Graphics/SVG/1.1/DTD/svg11.dtd">
<svg width="100%" height="100%" viewBox="0 0 38 24" version="1.1" xmlns="http://www.w3.org/2000/svg" xmlns:xlink="http://www.w3.org/1999/xlink" xml:space="preserve" xmlns:serif="http://www.serif.com/" style="fill-rule:evenodd;clip-rule:evenodd;stroke-linejoin:round;stroke-miterlimit:2;">
    <g transform="matrix(1,0,0,1,-104,0)">
        <g id="Artboard2" transform="matrix(0.498246,0,0,0.488595,-7.0805e-15,0.254529)">
            <rect x="0" y="-0.521" width="285" height="110.521" style="fill:none;"/>
            <g transform="matrix(-0.990141,0,0,1.05659,285,-43.3129)">
                <path d="M-0,79.241L31.419,79.241C33.88,79.241 36.229,81.848 38.5,83.437C34.567,79.8 31.977,73.221 31.5,67C30.66,59.363 34.961,50.361 42.5,40.5C46,54 50.288,51.016 52,63C53,70 51,76.937 44,83.937C45.954,82.266 49.002,79.241 51.689,79.241L77.027,79.241L77.027,86.989L50.676,86.989C48.094,86.954 44.595,86.989 41.5,85.937C38.514,86.989 36.486,86.989 32.432,86.989L-0,86.989L-0,79.241ZM42,54C40.01,56.551 39.02,61.065 38.5,66.5C38.699,71.345 40,72 42,75.5C44,72 44.967,70.352 45,65C45.025,61 44,58 42,54ZM10.5,54.5C19,60 20,58 24,61.5C27,64.125 28.5,70 28.5,74C25.5,74 21,74 17,70C14,67 12,62 10.5,54.5ZM73,54.5C71.5,62 69.5,67 66.5,70C62.5,74 58,74 55,74C55,70 56.5,64.125 59.5,61.5C63.5,58 64.5,60 73,54.5Z" style="fill:rgb(189,164,131);"/>
            </g>
        </g>
    </g>
</svg>
