<?xml version="1.0" encoding="UTF-8" standalone="no"?>
<!DOCTYPE svg PUBLIC "-//W3C//DTD SVG 1.1//EN" "http://www.w3.org/Graphics/SVG/1.1/DTD/svg11.dtd">
<svg xmlns="http://www.w3.org/2000/svg" xmlns:xlink="http://www.w3.org/1999/xlink" xmlns:serif="http://www.serif.com/" width="100%" height="100%" viewBox="0 0 50 50" version="1.1" xml:space="preserve" style="fill-rule:evenodd;clip-rule:evenodd;stroke-linejoin:round;stroke-miterlimit:2;">
    <g id="Artboard1" transform="matrix(0.416667,0,0,0.458716,-259.167,-185.78)">
        <rect x="622" y="405" width="120" height="109" style="fill:none;"/>
        <clipPath id="_clip1">
            <rect x="622" y="405" width="120" height="109"/>
        </clipPath>
        <g clip-path="url(#_clip1)">
            <g transform="matrix(1.44578,0,0,1.31325,-1313.9,-23.1205)">
                <path d="M1380.5,326C1403.4,326 1422,344.596 1422,367.5C1422,390.404 1403.4,409 1380.5,409C1357.6,409 1339,390.404 1339,367.5C1339,344.596 1357.6,326 1380.5,326ZM1380.5,328C1358.7,328 1341,345.699 1341,367.5C1341,389.301 1358.7,407 1380.5,407C1402.3,407 1420,389.301 1420,367.5C1420,345.699 1402.3,328 1380.5,328Z" style="fill:rgb(8,6,5);"/>
            </g>
            <g transform="matrix(1.44578,0,0,1.31325,-1313.9,-23.1205)">
                <circle cx="1380.5" cy="367.5" r="39.5" style="fill:rgb(254, 80, 80);"/>
            </g>
            <g transform="matrix(2.4,0,0,2.18,622,405)">
                <path d="M26,41C26.607,41.456 27,41.683 27,42.5C27,43.88 26.38,43 25,43C23.62,43 23,43.88 23,42.5C23,41.683 23.393,41.456 24,41L24,36L21,35.5C21,35.5 19.917,36.083 19.5,36C19.083,35.917 18.5,35.333 18.5,35C18.5,34.667 19.083,34.083 19.5,34C19.917,33.917 21,34.5 21,34.5L23.5,34L23,7L25,4.5L27,7L26.5,34L29,34.5C29,34.5 30.083,33.917 30.5,34C30.917,34.083 31.5,34.667 31.5,35C31.5,35.333 30.917,35.917 30.5,36C30.083,36.083 29,35.5 29,35.5L26,36L26,41Z" style="fill:white;"/>
                <path d="M27.4,40.319C28.06,40.877 28.4,41.396 28.4,42.5C28.4,42.956 28.339,43.275 28.264,43.496L28.01,43.988L27.701,44.311L27.376,44.514L27.045,44.629L26.317,44.653C26.032,44.612 25.6,44.4 25,44.4C24.4,44.4 23.968,44.612 23.683,44.653L22.955,44.629L22.624,44.514L22.299,44.311L21.99,43.988L21.736,43.496C21.661,43.275 21.6,42.956 21.6,42.5C21.6,41.396 21.94,40.876 22.6,40.319L22.6,37.186C22.6,37.186 21.211,36.955 21.212,36.954C20.981,37.06 20.692,37.182 20.422,37.266C20.209,37.332 20.002,37.377 19.824,37.396L19.225,37.373C18.727,37.273 18.074,36.866 17.659,36.372L17.253,35.724L17.134,35.338L17.1,35L17.134,34.662L17.253,34.276L17.659,33.628C18.074,33.134 18.727,32.727 19.225,32.627L19.824,32.604C20.002,32.623 20.209,32.668 20.422,32.734C20.683,32.815 20.961,32.931 21.188,33.035L22.079,32.857L21.6,7.026C21.594,6.699 21.703,6.381 21.907,6.125L23.907,3.625C24.172,3.293 24.575,3.1 25,3.1C25.425,3.1 25.828,3.293 26.093,3.625L28.093,6.125C28.297,6.381 28.406,6.699 28.4,7.026C28.4,7.026 27.921,32.857 27.921,32.857C27.921,32.857 28.812,33.035 28.812,33.035C29.039,32.931 29.317,32.815 29.578,32.734C29.791,32.668 29.998,32.623 30.176,32.604L30.775,32.627C31.273,32.727 31.926,33.134 32.341,33.628L32.747,34.276L32.866,34.662L32.9,35L32.866,35.338L32.747,35.724L32.341,36.372C31.926,36.866 31.273,37.273 30.775,37.373L30.176,37.396C29.998,37.377 29.791,37.332 29.578,37.266C29.308,37.182 29.019,37.06 28.789,36.955L27.4,37.186L27.4,40.319ZM26,41L26,36L29,35.5C29,35.5 30.083,36.083 30.5,36C30.917,35.917 31.5,35.333 31.5,35C31.5,34.667 30.917,34.083 30.5,34C30.083,33.917 29,34.5 29,34.5L26.5,34L27,7L25,4.5L23,7L23.5,34L21,34.5C21,34.5 19.917,33.917 19.5,34C19.083,34.083 18.5,34.667 18.5,35C18.5,35.333 19.083,35.917 19.5,36C19.917,36.083 21,35.5 21,35.5L24,36L24,41C23.393,41.456 23,41.683 23,42.5C23,43.88 23.62,43 25,43C26.38,43 27,43.88 27,42.5C27,41.683 26.607,41.456 26,41Z"/>
            </g>
        </g>
    </g>
</svg>
