<?xml version="1.0" encoding="UTF-8" standalone="no"?>
<!DOCTYPE svg PUBLIC "-//W3C//DTD SVG 1.1//EN" "http://www.w3.org/Graphics/SVG/1.1/DTD/svg11.dtd">
<svg width="100%" height="100%" viewBox="0 0 114 114" version="1.1" xmlns="http://www.w3.org/2000/svg" xmlns:xlink="http://www.w3.org/1999/xlink" xml:space="preserve" xmlns:serif="http://www.serif.com/" style="fill-rule:evenodd;clip-rule:evenodd;stroke-linejoin:round;stroke-miterlimit:2;">
    <g transform="matrix(1,0,0,1,-414,-165)">
        <g id="Artboard1" transform="matrix(1.02909,0,0,1.03537,0,1.03537)">
            <rect x="0" y="-1" width="550" height="311" style="fill:none;"/>
            <g transform="matrix(-0.97173,0,0,-0.965837,546.234,301.269)">
                <path d="M49.562,49.402C50.256,52.254 50.581,55.304 50.482,58.386C50.374,61.766 49.763,65.166 48.616,68.366C51.289,68.11 53.766,68.414 55.99,69.121C64.568,71.848 69.799,80.846 68.833,89.835C68.024,97.366 62.935,105.206 51.38,108.432C53.121,109.957 54.685,111.658 56.035,113.962C58.998,119.02 61.124,131.86 61.124,147.96L53.124,147.96C53.124,134.121 51.679,122.353 49.132,118.005C46.637,113.747 43.051,112.199 39.129,108.994C37.846,107.946 37.342,106.217 37.861,104.644C38.38,103.071 39.814,101.981 41.468,101.901C54.214,101.289 60.182,95.464 60.879,88.98C61.444,83.723 58.583,78.34 53.566,76.745C49.979,75.605 45.487,76.491 40.448,80.087C38.692,81.34 36.259,80.975 34.948,79.261C33.637,77.548 33.921,75.104 35.589,73.737C40.229,69.934 42.3,63.947 42.486,58.129C42.671,52.366 41.053,46.667 37.765,43.38C36.295,41.91 36.209,39.577 37.507,38.006C37.615,37.865 37.733,37.73 37.862,37.601C39.423,36.04 41.958,36.04 43.519,37.601C46.807,40.888 52.505,42.507 58.268,42.322C64.087,42.135 70.073,40.065 73.876,35.424C75.244,33.756 77.688,33.472 79.401,34.783C81.114,36.094 81.479,38.527 80.226,40.283C76.631,45.323 75.744,49.815 76.884,53.402C78.479,58.419 83.863,61.28 89.12,60.715C95.604,60.018 101.429,54.049 102.041,41.303C102.12,39.649 103.211,38.215 104.783,37.696C106.356,37.178 108.086,37.682 109.134,38.964C112.338,42.886 113.886,46.473 118.145,48.967C122.492,51.514 134.286,52.96 148.124,52.96L148.124,60.96C132.025,60.96 119.159,58.833 114.101,55.87C111.797,54.521 110.096,52.957 108.571,51.216C105.346,62.77 97.505,67.86 89.974,68.669C80.986,69.635 71.987,64.404 69.26,55.825C68.553,53.602 68.25,51.125 68.505,48.451C65.306,49.598 61.905,50.209 58.525,50.318C55.45,50.416 52.408,50.093 49.562,49.402ZM46.627,86.069C49.337,86.069 51.537,88.089 51.537,90.577C51.537,93.064 49.337,95.084 46.627,95.084C43.918,95.084 41.718,93.064 41.718,90.577C41.718,88.089 43.918,86.069 46.627,86.069ZM86.208,46.463C86.208,43.753 88.228,41.553 90.716,41.553C93.204,41.553 95.224,43.753 95.224,46.463C95.224,49.172 93.204,51.372 90.716,51.372C88.228,51.372 86.208,49.172 86.208,46.463Z" style="fill:rgb(187,164,134);"/>
            </g>
        </g>
    </g>
</svg>
