<?xml version="1.0" encoding="UTF-8" standalone="no"?>
<!DOCTYPE svg PUBLIC "-//W3C//DTD SVG 1.1//EN" "http://www.w3.org/Graphics/SVG/1.1/DTD/svg11.dtd">
<svg width="100%" height="100%" viewBox="0 0 226 59" version="1.1" xmlns="http://www.w3.org/2000/svg" xmlns:xlink="http://www.w3.org/1999/xlink" xml:space="preserve" xmlns:serif="http://www.serif.com/" style="fill-rule:evenodd;clip-rule:evenodd;stroke-linejoin:round;stroke-miterlimit:2;">
    <g transform="matrix(1,0,0,1,-170,-38)">
        <g id="Artboard1" transform="matrix(1.02909,0,0,1.03537,0,1.03537)">
            <rect x="0" y="-1" width="550" height="311" style="fill:none;"/>
            <g transform="matrix(0.967451,0,0,0.965839,-231.46,-9.73183)">
                <path d="M410,74.041L410,66.041C410,66.041 429.337,66.041 429.336,66.041C492.108,41.919 554.881,42.271 617.652,66.041L637,66.041L637,74.041L616.912,74.041C616.42,74.041 615.933,73.951 615.474,73.776C554.164,50.391 492.855,50.03 431.545,73.769C431.08,73.948 430.587,74.041 430.088,74.041L410,74.041Z" style="fill:rgb(187,164,134);"/>
            </g>
            <g transform="matrix(0.151319,-2.52069e-33,-2.53607e-33,-0.150401,238.33,92.7339)">
                <path d="M242.337,97.31C212.025,97.31 199.337,-23.253 151.401,5.897C128.92,26.562 102.798,83.703 76.282,92.542C68.399,95.17 59.141,95.722 48.858,95.722C48.858,96.307 48.951,96.026 48.063,96.517C56.646,121.115 64.172,144.775 41.942,157.566C37.926,159.877 33.335,161.021 28.19,164.084C28.19,179.099 54.773,193.696 42.896,215.754C36.218,228.156 0.565,236.757 1.004,241.588C1.178,243.505 28.728,254.788 36.139,263.846C46.412,276.401 38.178,286.821 42.498,302.399C50.716,299.085 56.301,293.585 63.484,291.191C87.081,283.325 114.067,304.617 136.934,292.304C137.102,292.213 137.252,292.092 137.411,291.986C140.773,289.744 131.019,283.092 135.424,276.485C141.852,266.843 169.377,232.735 177.793,225.849C178.516,225.257 179.264,224.629 180.098,224.18C195.952,215.643 221.591,223.077 242.337,223.077C263.084,223.077 288.723,215.643 304.577,224.18C305.411,224.629 306.159,225.257 306.882,225.849C315.298,232.735 342.823,266.843 349.251,276.485C353.656,283.092 343.902,289.744 347.264,291.986C347.423,292.092 347.573,292.213 347.741,292.304C370.608,304.617 397.594,283.325 421.191,291.191C428.374,293.585 433.959,299.085 442.176,302.399C446.497,286.821 438.263,276.401 448.536,263.846C455.947,254.788 483.497,243.505 483.671,241.588C484.11,236.757 448.457,228.156 441.779,215.754C429.902,193.696 456.485,179.099 456.485,164.084C451.34,161.021 446.749,159.877 442.733,157.566C420.503,144.775 428.029,121.115 436.612,96.517C435.723,96.026 435.817,96.307 435.817,95.722C425.534,95.722 416.276,95.17 408.393,92.542C381.877,83.703 355.755,26.562 333.273,5.897C285.338,-23.253 272.649,97.31 242.337,97.31ZM336.453,147.391C324.874,144.37 290.158,130.31 292.653,121.159C293.834,116.832 305.726,114.354 309.506,113.687C336.938,108.846 368.479,131.521 362.129,139.283C356.738,145.872 345.138,149.657 336.453,147.391ZM148.222,147.391C139.537,149.657 127.937,145.872 122.546,139.283C116.195,131.521 147.737,108.846 175.169,113.687C178.949,114.354 190.841,116.832 192.022,121.159C194.517,130.31 159.801,144.37 148.222,147.391Z"/>
            </g>
        </g>
    </g>
</svg>
