<?xml version="1.0" encoding="UTF-8" standalone="no"?>
<!DOCTYPE svg PUBLIC "-//W3C//DTD SVG 1.1//EN" "http://www.w3.org/Graphics/SVG/1.1/DTD/svg11.dtd">
<svg xmlns="http://www.w3.org/2000/svg" xmlns:xlink="http://www.w3.org/1999/xlink" xmlns:serif="http://www.serif.com/" width="100%" height="100%" viewBox="0 0 50 50" version="1.1" xml:space="preserve" style="fill-rule:evenodd;clip-rule:evenodd;stroke-linejoin:round;stroke-miterlimit:2;">
    <g id="Artboard1" transform="matrix(0.416667,0,0,0.458716,-259.167,-185.78)">
        <rect x="622" y="405" width="120" height="109" style="fill:none;"/>
        <clipPath id="_clip1">
            <rect x="622" y="405" width="120" height="109"/>
        </clipPath>
        <g clip-path="url(#_clip1)">
            <g transform="matrix(3.07692,0,0,2.79487,-3387.23,-785.615)">
                <g transform="matrix(0.46988,0,0,0.46988,673.831,272.819)">
                    <path d="M1380.5,326C1403.4,326 1422,344.596 1422,367.5C1422,390.404 1403.4,409 1380.5,409C1357.6,409 1339,390.404 1339,367.5C1339,344.596 1357.6,326 1380.5,326ZM1380.5,330C1359.8,330 1343,346.803 1343,367.5C1343,388.197 1359.8,405 1380.5,405C1401.2,405 1418,388.197 1418,367.5C1418,346.803 1401.2,330 1380.5,330Z" style="fill:rgb(8,6,5);"/>
                </g>
                <g transform="matrix(0.46988,0,0,0.46988,673.831,272.819)">
                    <circle cx="1380.5" cy="367.5" r="39.5" style="fill:rgb(67, 117, 178);"/>
                </g>
                <g transform="matrix(0.712398,0,0,0.548193,316.238,238.048)">
                    <path d="M1405.53,390L1401.62,390C1399.07,390 1397,387.311 1397,384L1397,372C1397,368.689 1399.07,366 1401.62,366L1423.38,366C1425.93,366 1428,368.689 1428,372L1428,384C1428,387.311 1425.93,390 1423.38,390L1409.41,390C1408.24,394.031 1405.57,397.103 1402.28,398.044C1403.75,395.99 1404.89,393.206 1405.53,390Z" style="fill:white;"/>
                </g>
                <g transform="matrix(0.712398,0,0,0.548193,316.238,238.048)">
                    <path d="M1404.65,390.857L1401.62,390.857C1398.7,390.857 1396.34,387.785 1396.34,384L1396.34,372C1396.34,368.215 1398.7,365.143 1401.62,365.143L1423.38,365.143C1426.3,365.143 1428.66,368.215 1428.66,372L1428.66,384C1428.66,387.785 1426.3,390.857 1423.38,390.857C1423.38,390.857 1409.85,390.857 1409.86,390.857C1408.53,394.882 1405.78,397.921 1402.42,398.881C1402.14,398.962 1401.85,398.795 1401.7,398.469C1401.56,398.143 1401.6,397.733 1401.8,397.459C1403.04,395.733 1404.02,393.464 1404.65,390.857ZM1406.16,390.213C1405.72,392.476 1405.03,394.537 1404.15,396.3C1406.28,394.963 1407.95,392.596 1408.79,389.699C1408.89,389.364 1409.13,389.143 1409.41,389.143L1423.38,389.143C1425.57,389.143 1427.34,386.838 1427.34,384L1427.34,372C1427.34,369.162 1425.57,366.857 1423.38,366.857L1401.62,366.857C1399.43,366.857 1397.66,369.162 1397.66,372L1397.66,384C1397.66,386.838 1399.43,389.143 1401.62,389.143L1405.53,389.143C1405.73,389.143 1405.92,389.265 1406.05,389.474C1406.17,389.684 1406.22,389.956 1406.16,390.213Z" style="fill:rgb(8,6,5);"/>
                </g>
            </g>
        </g>
    </g>
</svg>
